P2
101 100
255
 255 255 255 255 255 255 255 255 255 255 255 255
 255 255 255 255 255 255 255 255 255 255 255 255
 255 255 255 255 255 255 255 255 255 255 255 255
 255 255 255 255 255 255 255 255 255 255 255 255
 255 255 255 255 255 255 255 255 255 255 255 255
 255 255 255 255 255 255 255 255 255 255 255 255
 255 255 255 255 255 255 255 255 255 255 255 255
 255 255 255 255 255 255 255 255 255 255 255 255
 255 255 255 255 255 255 255 255 255 255 255 255
 255 255 255 255 255 255 255 255 255 255 255 255
 255 255 255 255 255 255 255 255 255 255 255 255
 255 255 255 255 255 255 255 255 255 255 255 255
 255 255 255 255 255 255 255 255 255 255 255 255
 255 255 255 255 255 255 255 255 255 255 255 255
 255 255 255 255 255 255 255 255 255 255 255 255
 255 255 255 255 255 255 255 255 255 255 255 255
 255 255 255 255 255 255 255 255 255 255 255 255
 255 255 255 255 255 255 255 255 255 255 255 255
 255 255 255 255 255 255 255 255 255 255 255 255
 255 255 255 255 255 255 255 255 255 255 255 255
 255 255 255 255 255 255 255 255 255 255 255 255
 255 255 255 255 255 255 255 255 255 255 255 255
 255 255 255 255 255 255 255 255 255 255 255 255
 255 255 255 255 255 255 255 255 255 255 255 255
 255 255 255 255 255 255 255 255 255 255 255 255
 255 255 255 255 255 255 255 255 255 255 255 255
 255 255 255 255 255 255 255 255 255 255 255 255
 255 255 255 255 255 255 255 255 255 255 255 255
 255 255 255 255 255 255 255 255 255 255 246 223
 214 188 188 188 188 188 188 188 188 203 223 240
 255 255 255 255 255 255 255 255 255 255 255 255
 255 255 255 255 255 255 255 255 255 255 255 255
 255 255 255 255 255 255 255 255 255 255 255 255
 255 255 255 255 255 255 255 255 255 255 255 255
 255 255 255 255 255 255 255 255 255 255 255 255
 255 255 255 255 255 255 255 255 255 255 255 255
 255 255 255 255 255 255 255 255 255 254 223 188
 151 120 72 46 3 1 0 0 0 0 0 0
 0 0 1 1 34 67 109 145 188 223 251 255
 255 255 255 255 255 255 255 255 255 255 255 255
 255 255 255 255 255 255 255 255 255 255 255 255
 255 255 255 255 255 255 255 255 255 255 255 255
 255 255 255 255 255 255 255 255 255 255 255 255
 255 255 255 255 255 255 255 255 255 255 255 255
 255 255 255 255 255 255 255 255 255 255 255 254
 214 163 95 25 1 0 0 0 16 44 67 73
 81 81 81 81 81 81 73 62 44 24 0 0
 0 1 28 67 145 203 246 255 255 255 255 255
 255 255 255 255 255 255 255 255 255 255 255 255
 255 255 255 255 255 255 255 255 255 255 255 255
 255 255 255 255 255 255 255 255 255 255 255 255
 255 255 255 255 255 255 255 255 255 255 255 255
 255 255 255 255 255 255 255 255 255 255 255 255
 255 255 223 157 87 11 0 0 16 37 59 95
 113 109 109 111 112 114 113 113 113 113 112 113
 117 112 114 113 87 55 44 24 12 12 0 61
 145 203 254 255 255 255 255 255 255 255 255 255
 255 255 255 255 255 255 255 255 255 255 255 255
 255 255 255 255 255 255 255 255 255 255 255 255
 255 255 255 255 255 255 255 255 255 255 255 255
 255 255 255 255 255 255 255 255 255 255 255 255
 255 255 255 255 255 203 114 25 0 0 24 67
 87 107 120 113 109 107 107 107 107 107 107 107
 107 111 112 113 95 74 74 74 95 108 116 125
 112 104 104 55 1 0 14 87 188 251 255 255
 255 255 255 255 255 255 255 255 255 255 255 255
 255 255 255 255 255 255 255 255 255 255 255 255
 255 255 255 255 255 255 255 255 255 255 255 255
 255 255 255 255 255 255 255 255 255 255 255 255
 255 255 255 255 255 255 255 255 203 115 55 12
 3 48 87 112 111 113 109 107 107 107 107 107
 107 107 107 107 107 113 81 24 0 0 1 20
 3 0 0 4 25 42 67 88 74 28 2 0
 0 0 55 174 246 255 255 255 255 255 255 255
 255 255 255 255 255 255 255 255 255 255 255 255
 255 255 255 255 255 255 255 255 255 255 255 255
 255 255 255 255 255 255 255 255 255 255 255 255
 255 255 255 255 255 255 255 255 255 255 255 223
 103 30 86 112 96 99 125 112 109 109 110 113
 108 107 107 107 107 107 107 107 110 113 67 0
 6 67 120 136 167 145 129 120 105 67 45 3
 0 0 1 15 31 11 0 0 1 61 188 251
 255 255 255 255 255 255 255 255 255 255 255 255
 255 255 255 255 255 255 255 255 255 255 255 255
 255 255 255 255 255 255 255 255 255 255 255 255
 255 255 255 255 255 255 255 255 255 255 255 255
 255 255 246 151 28 0 42 111 108 112 96 73
 44 4 12 58 87 112 112 107 107 109 111 119
 116 106 62 0 17 149 192 199 193 162 167 167
 167 172 196 192 188 163 163 124 67 11 0 31
 51 20 0 2 95 223 255 255 255 255 255 255
 255 255 255 255 255 255 255 255 255 255 255 255
 255 255 255 255 255 255 255 255 255 255 255 255
 255 255 255 255 255 255 255 255 255 255 255 255
 255 255 255 255 255 255 214 78 0 0 17 95
 127 105 68 4 0 8 50 46 2 0 37 87
 113 113 95 74 41 30 16 0 8 103 179 142
 105 45 16 16 16 11 20 50 78 134 134 120
 50 0 0 58 113 119 106 62 10 0 31 174
 255 255 255 255 255 255 255 255 255 255 255 255
 255 255 255 255 255 255 255 255 255 255 255 255
 255 255 255 255 255 255 255 255 255 255 255 255
 255 255 255 255 255 255 255 255 255 251 157 20
 0 34 34 0 1 6 12 6 61 151 214 251
 246 188 72 10 0 0 0 0 0 6 22 6
 0 2 3 0 0 0 9 37 67 55 41 30
 13 1 1 0 1 20 24 73 115 109 107 110
 116 95 30 0 0 103 233 255 255 255 255 255
 255 255 255 255 255 255 255 255 255 255 255 255
 255 255 255 255 255 255 255 255 255 255 255 255
 255 255 255 255 255 255 255 255 255 255 255 255
 255 240 103 0 0 0 103 151 87 67 50 78
 95 134 114 61 50 50 61 61 120 128 120 120
 120 129 149 66 1 16 73 73 73 81 82 99
 120 112 112 116 116 107 82 82 82 86 107 113
 114 107 107 107 107 107 111 113 73 6 0 55
 214 254 255 255 255 255 255 255 255 255 255 255
 255 255 255 255 255 255 255 255 255 255 255 255
 255 255 255 255 255 255 255 255 255 255 255 255
 255 255 255 255 255 223 72 0 20 58 16 0
 2 16 14 10 16 6 0 0 2 16 24 24
 0 35 182 192 191 191 192 179 17 1 95 112
 112 112 112 113 109 107 107 107 107 107 109 112
 112 112 111 109 108 107 107 107 107 107 107 107
 109 117 91 10 0 25 174 255 255 255 255 255
 255 255 255 255 255 255 255 255 255 255 255 255
 255 255 255 255 255 255 255 255 255 255 255 255
 255 255 255 255 255 255 255 255 255 203 50 0
 24 106 119 99 81 73 51 44 58 51 62 73
 81 92 108 116 120 62 0 162 185 182 182 182
 185 72 0 95 109 107 107 107 107 107 107 107
 107 107 107 107 107 107 107 107 107 107 107 107
 107 107 107 107 109 116 87 28 1 0 0 6
 157 255 255 255 255 255 255 255 255 255 255 255
 255 255 255 255 255 255 255 255 255 255 255 255
 255 255 255 255 255 255 255 255 255 255 255 255
 255 188 31 0 44 107 112 105 110 112 111 110
 109 111 110 111 112 113 111 108 110 107 24 0
 162 185 182 182 182 186 162 7 41 112 107 107
 107 107 107 107 107 107 107 107 107 107 107 107
 107 107 107 107 107 107 107 107 109 113 44 0
 10 78 149 84 0 6 157 255 255 255 255 255
 255 255 255 255 255 255 255 255 255 255 255 255
 255 255 255 255 255 255 255 255 255 255 255 255
 255 255 255 255 255 188 28 0 58 112 109 107
 107 107 107 107 107 107 107 107 107 107 107 107
 109 116 37 0 78 183 183 182 182 182 184 179
 50 12 114 107 107 107 107 107 107 107 107 107
 107 107 107 107 107 107 107 107 107 107 107 107
 107 112 67 0 61 151 192 194 191 114 0 6
 157 255 255 255 255 255 255 255 255 255 255 255
 255 255 255 255 255 255 255 255 255 255 255 255
 255 255 255 255 255 255 255 255 254 203 31 0
 62 115 109 107 107 107 107 107 107 107 107 107
 107 107 107 107 108 109 51 0 56 183 184 182
 182 182 182 183 182 56 12 114 107 107 107 107
 107 107 107 107 107 107 107 107 107 107 107 107
 107 107 107 107 107 108 107 6 22 179 190 188
 149 120 120 55 3 6 157 255 255 255 255 255
 255 255 255 255 255 255 255 255 255 255 255 255
 255 255 255 255 255 255 255 255 255 255 255 255
 255 233 46 0 51 116 107 107 107 107 107 107
 107 107 107 107 107 108 109 108 107 113 62 0
 26 162 186 182 182 182 182 182 185 167 10 30
 112 111 113 112 110 112 109 107 107 107 107 107
 107 107 107 107 107 107 107 107 107 107 109 95
 0 114 190 188 135 9 0 0 37 50 2 9
 188 255 255 255 255 255 255 255 255 255 255 255
 255 255 255 255 255 255 255 255 255 255 255 255
 255 255 255 255 255 246 78 0 37 108 109 107
 107 107 107 107 107 107 107 107 107 108 112 96
 108 109 81 0 31 162 189 182 182 182 182 182
 182 187 120 0 73 117 92 81 67 58 73 107
 111 107 107 107 107 107 107 107 107 107 107 107
 107 107 107 110 73 0 145 190 183 56 0 81
 73 0 20 37 0 20 203 255 255 255 255 255
 255 255 255 255 255 255 255 255 255 255 255 255
 255 255 255 255 255 255 255 255 255 255 120 1
 20 106 109 107 107 107 107 107 107 107 107 107
 107 107 113 51 10 50 152 13 7 149 190 182
 182 182 182 182 182 182 191 45 1 108 106 14
 0 10 22 0 24 102 111 107 107 107 107 107
 107 107 107 107 107 107 107 107 110 73 0 142
 192 174 13 44 116 116 81 10 15 25 0 50
 233 255 255 255 255 255 255 255 255 255 255 255
 255 255 255 255 255 255 255 255 255 255 255 255
 255 255 163 2 6 95 112 107 107 107 107 107
 107 107 107 107 107 107 116 59 1 5 40 124
 0 84 193 182 182 182 182 182 182 182 182 191
 45 3 87 11 0 31 72 162 135 26 16 106
 109 107 107 107 107 107 107 107 107 107 107 107
 107 109 102 0 67 188 156 0 88 112 107 112
 102 24 6 20 0 103 251 255 255 255 255 255
 255 255 255 255 255 255 255 255 255 255 255 255
 255 255 255 255 255 255 214 28 0 62 112 107
 107 107 107 107 107 107 107 107 107 107 107 115
 44 16 22 34 78 0 129 191 182 182 182 182
 182 182 182 182 185 142 6 0 0 10 78 109
 72 199 135 1 62 116 107 107 107 107 107 107
 107 107 107 107 107 107 107 113 58 0 41 26
 0 95 112 107 107 117 81 0 40 14 0 151
 255 255 255 255 255 255 255 255 255 255 255 255
 255 255 255 255 255 255 255 255 255 255 251 87
 0 37 116 107 107 107 107 107 107 107 107 107
 107 107 107 107 115 44 22 28 20 20 22 167
 186 182 182 182 182 182 182 182 182 185 167 20
 100 128 43 141 103 136 189 188 31 24 109 108
 107 107 107 107 107 107 107 107 107 107 107 107
 108 116 59 30 30 58 104 108 107 109 116 62
 0 88 120 0 20 203 255 255 255 255 255 255
 255 255 255 255 255 255 255 255 255 255 255 255
 255 255 255 163 0 16 106 109 107 107 107 107
 107 107 107 107 107 107 107 107 107 115 37 46
 87 0 0 67 189 189 188 182 182 182 182 182
 182 182 186 151 22 120 194 145 129 175 188 181
 190 88 1 95 110 107 107 107 107 107 107 107
 107 107 107 107 107 107 107 113 120 120 116 107
 107 109 108 44 0 22 156 189 61 0 78 251
 255 255 255 255 255 255 255 255 255 255 255 255
 255 255 255 255 255 255 255 233 40 0 67 114
 107 107 107 107 107 107 107 107 107 107 107 107
 107 107 115 37 41 196 100 56 167 187 122 145
 185 182 182 182 182 182 182 186 142 95 78 186
 188 188 183 182 182 184 162 7 67 110 107 107
 107 107 107 107 107 107 107 107 107 107 107 107
 107 107 107 107 107 107 112 81 0 45 156 188
 188 162 22 0 157 255 255 255 255 255 255 255
 255 255 255 255 255 255 255 255 255 255 255 255
 134 0 37 112 107 107 107 107 107 107 107 107
 107 107 107 107 107 107 108 109 24 35 192 191
 193 191 120 61 43 156 185 182 182 182 182 182
 186 149 79 135 185 182 182 182 182 182 184 175
 35 30 113 107 107 107 107 107 107 107 107 107
 107 107 107 107 107 107 107 107 107 107 107 112
 67 1 167 188 182 182 192 114 0 40 233 255
 255 255 255 255 255 255 255 255 255 255 255 255
 255 255 255 255 214 25 0 87 112 107 107 107
 107 107 107 107 107 107 107 107 107 107 107 110
 95 1 72 190 182 187 175 56 109 50 162 184
 182 182 182 182 185 179 185 179 184 182 182 182
 182 182 182 184 175 35 20 120 107 107 107 107
 107 107 107 107 107 107 107 107 107 107 107 107
 107 107 107 107 109 37 13 186 182 182 182 183
 183 50 0 145 255 255 255 255 255 255 255 255
 255 255 255 255 255 255 255 255 255 124 0 37
 116 107 107 107 107 107 107 107 107 107 107 107
 107 107 107 107 116 44 0 142 186 183 162 179
 78 41 167 188 182 182 182 182 183 162 120 100
 186 182 182 182 182 182 182 182 183 187 67 0
 87 116 107 107 107 107 107 107 107 107 107 107
 107 107 107 107 107 107 107 107 107 108 0 67
 188 182 182 182 182 189 135 0 40 233 254 255
 255 255 255 255 255 255 255 255 255 255 255 255
 255 223 20 0 95 110 107 107 107 107 107 107
 107 107 107 107 107 107 107 107 111 87 0 67
 187 187 93 31 40 157 188 185 182 182 182 182
 183 185 72 145 84 188 182 182 182 182 182 182
 182 182 187 162 26 13 95 109 107 107 107 107
 107 107 107 107 107 107 107 107 107 107 107 107
 107 107 113 0 100 188 182 182 182 182 183 188
 50 0 134 255 255 255 255 255 255 255 255 255
 255 255 255 255 255 255 151 0 44 115 107 107
 107 107 107 107 107 107 107 107 107 107 107 107
 107 119 48 1 136 191 185 43 152 86 44 172
 184 182 182 182 182 182 184 142 129 187 183 182
 182 182 182 182 182 182 182 182 190 149 17 24
 116 107 107 107 107 107 107 107 107 107 107 107
 107 107 107 107 107 109 112 67 0 93 188 182
 182 182 182 182 188 135 0 40 233 255 255 255
 255 255 255 255 255 255 255 255 255 255 240 55
 0 87 112 107 107 107 107 107 107 107 107 107
 107 107 107 107 107 107 115 37 22 179 185 179
 55 170 130 10 149 185 182 182 182 182 182 182
 187 188 183 182 182 182 182 182 182 182 182 182
 182 182 196 93 0 95 110 107 107 107 107 107
 107 107 107 107 107 107 107 107 107 107 113 51
 0 41 149 185 182 182 182 182 182 182 182 41
 0 163 255 255 255 255 255 255 255 255 255 255
 255 255 255 188 0 30 116 107 107 107 107 107
 107 107 107 107 107 107 107 107 112 112 113 115
 30 31 193 190 136 31 95 41 114 184 183 182
 182 182 182 182 182 182 182 182 182 182 182 182
 182 182 182 182 182 182 182 188 149 6 55 119
 107 107 107 107 107 107 107 107 107 107 107 108
 108 108 116 62 0 61 179 188 182 182 182 182
 182 182 182 191 120 0 78 255 255 255 255 255
 255 255 255 255 255 255 255 255 120 0 67 112
 107 107 107 107 107 107 107 107 107 107 107 107
 110 99 73 67 108 50 13 162 189 67 18 56
 174 189 183 182 182 182 182 182 182 182 182 182
 182 182 182 182 182 182 182 182 182 182 182 182
 183 186 26 44 115 107 107 107 107 107 107 107
 107 107 110 119 116 113 115 125 20 31 174 188
 182 182 182 182 182 182 182 182 185 174 31 10
 214 255 255 255 255 255 255 255 255 255 255 255
 246 46 0 102 108 107 107 107 107 107 107 107
 107 107 107 107 110 102 16 0 0 40 67 0
 129 156 50 67 114 194 182 182 182 182 182 182
 182 182 182 182 182 182 182 182 182 182 182 182
 182 182 182 182 182 182 192 45 24 109 109 107
 107 107 107 107 107 112 113 87 41 24 24 37
 108 12 72 199 182 182 182 182 182 182 182 182
 182 182 193 72 0 157 255 255 255 255 255 255
 255 255 255 255 255 188 1 37 112 107 107 107
 107 107 107 107 107 107 107 107 107 116 24 1
 135 105 1 28 0 105 156 55 34 129 188 182
 182 182 182 182 182 182 182 182 182 182 182 182
 182 182 182 182 182 182 182 182 182 182 182 190
 84 16 92 108 110 107 107 107 108 109 87 16
 0 20 56 72 17 10 1 72 194 182 182 182
 182 182 182 182 182 182 182 187 135 0 78 255
 255 255 255 255 255 255 255 255 255 255 141 0
 73 114 107 107 107 107 107 107 107 107 107 107
 107 109 102 0 78 193 183 31 15 0 93 156
 34 43 183 183 182 182 182 182 182 182 182 182
 182 182 182 182 182 182 182 182 182 182 182 182
 182 182 182 182 189 93 0 14 31 107 109 107
 107 112 67 0 26 105 167 194 194 142 0 0
 67 193 183 182 182 182 182 182 182 182 182 182
 183 179 22 9 223 255 255 255 255 255 255 255
 255 255 255 78 0 92 112 107 107 107 107 107
 107 107 107 107 107 107 110 82 1 129 191 189
 105 2 8 78 157 0 35 193 183 182 182 182
 182 182 182 182 182 182 182 182 182 182 182 182
 182 182 182 182 182 182 182 182 182 190 56 0
 1 0 88 110 107 110 81 0 61 179 194 186
 182 183 175 9 0 50 183 183 182 182 182 182
 182 182 182 182 182 182 186 78 0 174 255 255
 255 255 255 255 255 255 255 223 25 24 113 108
 107 107 107 107 107 107 107 107 107 107 107 110
 82 25 162 186 188 142 0 0 72 163 0 88
 191 182 182 182 182 182 182 182 182 182 182 182
 182 182 182 182 182 182 182 182 182 182 182 182
 182 182 193 35 0 11 11 24 116 108 120 24
 6 157 156 149 183 183 183 184 67 0 56 185
 186 187 183 182 182 182 182 182 182 182 182 191
 114 0 141 255 255 255 255 255 255 255 255 255
 188 1 41 120 107 107 107 107 107 107 107 107
 107 107 107 107 116 59 16 162 186 184 175 114
 114 167 193 167 179 182 182 182 182 182 182 182
 182 182 182 182 182 182 182 182 182 182 182 182
 182 182 182 182 182 182 183 186 35 0 14 29
 0 81 112 120 20 61 87 0 0 84 187 183
 191 135 41 122 194 167 151 187 181 182 182 182
 182 182 182 182 190 145 0 87 255 255 255 255
 255 255 255 255 255 163 0 55 112 107 107 107
 107 107 107 107 107 107 107 107 109 109 24 26
 179 184 182 183 190 188 188 88 114 183 183 182
 182 182 182 182 182 182 182 182 182 182 182 182
 182 182 182 182 182 182 182 182 182 182 182 182
 193 41 0 17 157 35 10 95 125 24 28 28
 11 16 2 151 187 181 188 199 179 128 134 103
 122 190 186 183 182 182 182 182 182 185 172 26
 40 240 255 255 255 255 255 255 255 255 134 0
 87 110 107 107 107 107 107 107 107 107 107 107
 107 111 87 0 78 193 182 182 182 182 190 129
 95 61 156 184 182 182 182 182 182 182 182 182
 182 182 182 182 182 182 182 182 182 182 182 182
 182 182 182 182 182 188 114 26 61 196 149 17
 10 88 37 0 0 55 46 0 151 188 183 182
 88 28 79 134 120 114 189 156 184 183 182 182
 182 182 183 196 45 5 203 255 255 255 255 255
 255 255 255 103 0 102 108 107 107 107 107 107
 107 107 107 107 107 107 115 37 3 156 185 182
 182 182 182 191 114 46 66 175 184 182 182 182
 182 182 182 182 182 182 182 182 182 182 182 182
 182 182 182 182 182 182 182 182 182 182 182 187
 172 174 183 186 156 56 0 20 31 87 95 0
 35 174 185 183 179 114 128 172 183 185 194 88
 114 128 183 182 182 182 182 182 194 56 1 188
 255 255 255 255 255 255 255 255 61 4 113 107
 107 107 107 107 107 107 107 107 107 107 108 106
 0 67 184 183 182 182 182 182 182 184 142 162
 185 182 182 182 182 182 182 182 182 182 182 182
 182 182 182 182 182 182 182 182 182 182 182 182
 182 182 182 182 182 185 184 182 182 188 187 114
 17 8 141 55 0 142 188 182 182 183 189 189
 184 183 183 188 120 88 114 184 182 182 182 182
 182 191 88 1 174 255 255 255 255 255 255 255
 255 61 30 110 107 107 107 107 107 107 107 107
 107 107 107 116 67 0 114 192 182 182 182 182
 182 182 182 186 183 182 182 182 182 182 182 182
 182 182 182 182 182 182 182 182 182 182 182 182
 182 182 182 182 182 182 182 182 182 182 182 182
 182 182 182 182 192 156 17 11 15 22 193 181
 182 182 182 182 182 182 182 182 182 191 179 157
 172 183 182 182 182 182 188 114 0 151 255 255
 255 255 255 255 255 233 22 37 109 107 107 107
 107 107 107 107 107 107 107 109 108 20 26 172
 186 182 182 182 182 182 182 182 182 182 182 182
 182 182 182 182 182 182 182 182 182 182 182 182
 182 182 182 182 182 182 182 182 182 182 182 182
 182 182 182 182 182 182 182 182 182 182 193 100
 0 9 14 167 186 182 182 182 182 182 182 182
 188 193 193 136 78 88 167 185 182 182 182 186
 142 0 151 255 255 255 255 255 255 255 223 2
 51 110 107 107 107 107 107 107 107 107 107 107
 111 86 0 88 191 175 185 182 182 182 182 182
 182 182 182 182 182 182 182 182 182 182 182 182
 182 182 182 182 182 182 182 182 182 182 182 182
 182 182 182 182 182 182 182 182 182 182 182 182
 182 182 182 185 174 26 15 1 67 185 183 182
 188 189 186 191 189 128 56 41 56 22 93 191
 184 182 182 182 185 149 0 120 255 255 255 255
 255 255 255 223 3 67 112 107 107 107 107 107
 107 107 107 107 107 111 86 0 149 128 79 151
 186 182 182 182 182 182 182 182 182 182 182 182
 182 182 182 182 182 182 182 182 182 182 182 182
 182 182 182 182 182 182 182 182 182 182 182 182
 182 182 182 182 182 182 182 182 182 194 45 8
 20 11 162 187 188 156 93 78 120 84 0 2
 16 6 0 28 122 185 183 182 182 185 149 0
 114 255 255 255 255 255 255 255 223 3 67 112
 107 107 107 107 107 107 107 107 107 107 111 86
 1 72 87 120 100 192 182 182 182 182 182 182
 182 182 182 182 182 182 182 182 182 182 182 182
 182 182 182 182 182 182 182 182 182 182 182 182
 182 182 182 182 182 182 182 182 182 182 182 182
 182 182 192 56 0 28 0 114 179 135 20 0
 0 0 0 16 87 108 99 73 20 0 84 182
 185 182 185 149 0 114 255 255 255 255 255 255
 255 223 3 67 112 107 107 107 107 107 107 107
 107 107 107 110 96 10 50 66 61 167 185 182
 182 182 182 182 182 182 182 182 182 182 182 182
 182 182 182 182 182 182 182 182 182 182 182 182
 182 182 182 182 182 182 182 182 182 182 182 182
 182 182 182 182 182 182 182 194 41 20 108 30
 0 0 0 10 74 113 87 74 102 112 108 109
 114 107 44 0 84 188 182 185 149 0 114 255
 255 255 255 255 255 255 223 2 67 112 107 107
 107 107 107 107 107 107 107 107 108 108 24 35
 172 167 186 182 182 182 182 182 182 182 182 182
 182 182 182 182 182 182 182 182 182 182 182 182
 182 182 182 182 182 182 182 182 182 182 182 182
 182 182 182 182 182 182 182 182 182 182 182 190
 174 22 20 108 107 81 81 81 87 110 108 109
 111 108 107 107 107 107 109 108 37 0 114 189
 185 149 0 114 255 255 255 255 255 255 255 223
 3 51 110 107 107 107 107 107 107 107 107 107
 107 107 116 59 0 129 194 182 182 182 182 182
 182 182 182 182 182 182 182 182 182 182 182 182
 182 182 182 182 182 182 182 182 182 182 182 182
 182 182 182 182 182 182 182 182 182 182 182 182
 182 182 182 186 174 72 0 59 113 109 113 113
 113 112 107 107 107 107 107 107 107 107 107 107
 112 106 10 17 162 188 149 0 141 255 255 255
 255 255 255 255 246 40 24 113 107 107 107 107
 107 107 107 109 110 109 111 112 95 0 105 193
 182 182 182 182 182 182 182 182 182 182 182 182
 182 182 182 182 182 182 182 182 182 182 182 182
 182 182 182 182 182 182 182 182 182 182 182 182
 182 182 182 182 182 182 182 187 167 41 0 37
 107 109 107 107 107 107 107 107 107 107 107 107
 107 107 107 107 107 107 114 67 0 120 194 135
 0 157 255 255 255 255 255 255 255 255 61 0
 67 114 107 107 107 107 107 109 108 58 12 51
 107 113 0 105 193 184 187 182 182 182 182 182
 182 182 182 182 182 182 182 182 182 182 182 182
 182 182 182 182 182 182 182 182 182 182 182 182
 182 182 182 182 182 182 182 182 182 182 182 183
 179 45 0 37 106 111 107 107 107 107 107 107
 107 107 107 107 107 107 107 107 107 107 107 108
 102 0 84 194 105 0 157 255 255 255 255 255
 255 255 254 87 0 10 95 112 107 107 107 107
 112 81 0 25 1 48 108 0 114 194 162 128
 187 182 182 182 182 182 182 182 182 182 182 182
 182 182 182 182 182 182 182 182 182 182 182 182
 182 182 182 182 182 182 182 182 182 182 182 182
 182 182 182 182 186 142 0 44 116 109 107 107
 107 107 107 107 107 107 107 107 107 107 107 107
 107 107 107 107 107 113 0 61 192 88 0 188
 255 255 255 255 255 255 255 255 124 0 7 10
 95 112 107 107 107 110 67 3 162 43 6 55
 0 114 193 93 67 122 190 182 182 182 182 182
 182 182 182 182 182 182 182 182 182 182 182 182
 182 182 182 182 182 182 182 182 182 182 182 182
 182 182 182 182 182 182 182 182 182 187 135 0
 95 112 107 107 107 107 107 107 107 107 107 107
 107 107 107 107 107 107 107 107 107 109 102 0
 17 205 50 0 203 254 255 255 255 255 255 255
 255 151 0 34 3 24 108 109 107 107 110 62
 1 183 129 1 28 0 67 179 88 120 100 193
 182 182 182 182 182 182 182 182 182 182 182 182
 182 182 182 182 182 182 182 182 182 182 182 182
 182 182 182 182 182 182 182 182 182 182 182 182
 182 182 185 149 0 73 110 107 107 107 107 107
 107 107 107 107 107 107 107 107 107 107 107 107
 107 108 115 37 0 78 223 22 28 223 255 255
 255 255 255 255 255 254 188 0 55 72 0 73
 112 107 107 112 81 0 172 183 22 14 25 1
 142 88 46 100 191 182 182 182 182 182 182 182
 182 182 182 182 182 182 182 182 182 182 182 182
 182 182 182 182 182 182 182 182 182 182 182 182
 182 182 182 182 182 182 182 185 174 22 20 115
 107 107 107 107 107 107 107 107 107 107 107 107
 107 107 107 107 107 107 111 81 0 26 172 149
 0 72 255 255 255 255 255 255 255 255 255 203
 6 40 174 10 24 112 107 107 116 67 0 172
 189 100 0 37 1 46 72 95 55 136 186 182
 182 182 182 182 182 182 182 182 182 182 182 182
 182 182 182 182 182 182 182 182 182 182 182 182
 182 182 182 182 182 182 182 182 182 182 182 182
 183 187 72 0 113 109 107 107 107 107 107 107
 107 107 107 107 107 107 107 107 107 107 107 113
 20 1 135 199 122 0 120 255 255 255 255 255
 255 255 255 255 240 50 0 188 78 0 95 109
 111 81 0 41 179 188 156 9 15 25 5 25
 37 61 156 184 182 182 182 182 182 182 182 182
 182 182 182 182 182 182 182 182 182 182 182 182
 182 182 182 182 182 182 182 182 182 182 182 182
 182 182 182 182 182 182 191 128 0 62 116 107
 107 107 107 107 107 107 107 107 107 107 107 107
 107 107 107 109 95 0 56 189 189 105 0 163
 255 255 255 255 255 255 255 255 255 255 124 0
 134 145 0 55 117 112 37 22 162 185 183 187
 88 0 31 0 67 167 199 186 182 182 182 182
 182 182 182 182 182 182 182 182 182 182 182 182
 182 182 182 182 182 182 182 182 182 182 182 182
 182 182 182 182 182 182 182 182 182 182 182 184
 179 31 13 107 109 107 107 107 107 107 107 107
 107 107 107 107 107 107 107 107 110 74 0 135
 191 184 50 0 203 255 255 255 255 255 255 255
 255 255 254 174 0 78 203 3 30 120 112 24
 45 196 182 182 184 156 14 14 5 84 194 151
 174 183 182 182 182 182 182 182 182 182 182 182
 182 182 182 182 182 182 182 182 182 182 182 182
 182 182 182 182 182 182 182 182 182 182 182 182
 182 182 182 182 182 190 114 0 48 112 107 107
 107 107 107 107 107 107 107 107 107 107 107 107
 107 110 74 0 136 191 167 1 34 240 255 255
 255 255 255 255 255 255 255 254 223 15 15 203
 55 6 96 120 30 41 193 183 187 151 26 34
 9 0 105 186 79 114 187 188 182 182 182 182
 182 182 182 182 182 182 182 182 182 182 182 182
 182 182 182 182 182 182 182 182 182 182 182 182
 182 182 182 182 182 182 182 182 182 182 185 149
 0 30 112 107 107 107 107 107 107 107 107 107
 107 107 107 107 107 107 112 67 0 136 194 105
 0 114 255 255 255 255 255 255 255 255 255 255
 255 254 87 0 134 120 0 82 125 30 41 193
 183 188 145 10 22 114 167 187 156 124 167 102
 145 185 182 182 182 182 182 182 182 182 182 182
 182 182 182 182 182 182 182 182 182 182 182 182
 182 182 182 182 182 182 182 182 182 182 182 182
 182 182 182 186 135 0 67 112 107 107 107 107
 107 107 107 107 107 107 107 107 107 107 107 119
 41 0 136 199 56 0 188 255 255 255 255 255
 255 255 255 255 255 255 255 163 0 67 174 0
 51 125 30 41 196 183 183 182 67 109 66 142
 188 179 103 152 74 67 191 182 182 182 182 182
 182 182 182 182 182 182 182 182 182 182 182 182
 182 182 182 182 182 182 182 182 182 182 182 182
 182 182 182 182 182 182 182 182 184 172 26 16
 113 109 107 107 107 107 107 107 107 107 107 107
 107 107 107 108 113 24 20 172 162 11 40 240
 255 255 255 255 255 255 255 255 255 255 255 255
 214 20 6 151 46 0 46 5 56 179 184 182
 188 136 46 130 55 100 167 151 88 128 179 183
 182 182 182 182 182 182 182 182 182 182 182 182
 182 182 182 182 182 182 182 182 182 182 182 182
 182 182 182 182 182 182 182 182 182 182 182 182
 182 182 188 120 0 44 109 108 107 107 107 107
 107 107 107 107 107 107 107 107 113 82 0 56
 196 105 0 124 255 255 255 255 255 255 255 255
 255 255 255 255 255 255 95 0 95 157 31 0
 1 72 31 120 189 182 192 114 30 115 108 102
 149 194 188 183 185 175 181 188 191 188 182 182
 182 182 182 182 182 182 182 182 182 182 182 182
 182 182 182 182 182 182 182 182 182 182 182 182
 182 182 182 182 182 182 182 185 172 26 0 96
 110 107 107 107 107 107 107 107 107 107 107 107
 107 114 58 0 105 193 22 2 203 255 255 255
 255 255 255 255 255 255 255 255 255 255 255 188
 3 9 174 172 149 167 105 74 67 129 188 183
 193 105 31 120 109 14 175 185 184 114 62 98
 114 100 145 189 182 182 182 182 182 182 182 182
 182 182 182 182 182 182 182 182 182 182 182 182
 182 182 182 182 182 182 182 182 182 182 182 182
 192 122 0 44 109 108 107 107 107 107 107 108
 108 107 107 108 108 114 102 10 5 214 120 0
 87 255 255 255 255 255 255 255 255 255 255 255
 255 255 255 255 255 78 0 105 192 185 183 41
 174 130 56 183 183 181 191 136 78 72 142 183
 187 156 37 167 127 115 115 43 156 186 182 182
 182 182 182 182 182 182 182 182 182 182 182 182
 182 182 182 182 182 182 182 182 182 182 182 182
 182 182 182 182 182 194 105 1 92 111 107 107
 107 107 108 115 102 102 113 113 108 102 74 13
 0 114 198 29 0 188 255 255 255 255 255 255
 255 255 255 255 255 255 255 255 255 255 174 0
 22 167 187 184 105 50 50 135 188 182 182 182
 190 190 188 188 182 184 175 100 67 67 95 142
 74 114 192 182 182 182 182 182 182 182 182 182
 182 182 182 182 182 182 182 182 182 182 182 182
 182 182 182 182 182 182 182 182 182 182 192 114
 0 82 110 107 107 107 108 112 51 0 0 0
 0 0 0 0 11 93 193 114 0 87 254 255
 255 255 255 255 255 255 255 255 255 255 255 255
 255 255 255 254 87 0 100 191 182 189 174 186
 188 181 182 183 188 188 183 183 188 188 183 188
 186 196 199 162 67 44 145 188 182 182 182 182
 182 182 182 182 182 182 182 182 182 182 182 182
 182 182 182 182 182 182 182 182 182 182 182 182
 182 182 182 193 84 0 82 111 107 107 107 114
 67 0 41 120 120 120 120 122 129 156 189 185
 50 0 188 255 255 255 255 255 255 255 255 255
 255 255 255 255 255 255 255 255 255 188 6 10
 156 185 182 185 183 182 182 184 183 151 151 185
 188 145 145 196 128 0 41 174 194 114 6 84
 189 183 182 182 182 182 182 182 182 182 182 182
 182 182 182 182 182 182 182 182 182 182 182 182
 182 182 182 182 182 182 182 189 128 6 20 107
 108 107 107 109 95 3 22 162 192 191 191 191
 191 191 187 191 114 0 87 255 255 255 255 255
 255 255 255 255 255 255 255 255 255 255 255 255
 255 255 255 103 0 61 185 183 182 182 182 183
 174 61 11 14 56 93 10 6 67 10 20 0
 105 192 182 56 67 179 183 182 182 182 182 182
 182 182 182 182 182 182 182 182 182 182 182 182
 182 182 182 182 182 182 182 182 182 182 182 184
 183 31 0 87 112 107 107 107 115 41 0 128
 191 182 182 182 182 182 182 187 167 22 10 203
 255 255 255 255 255 255 255 255 255 255 255 255
 255 255 255 255 255 255 255 255 223 28 0 114
 191 182 182 182 191 105 10 95 95 42 30 82
 87 0 10 99 25 105 194 183 184 182 182 182
 182 182 182 182 182 182 182 182 182 182 182 182
 182 182 182 182 182 182 182 182 182 182 182 182
 182 182 182 182 192 114 0 44 115 107 107 107
 111 92 1 35 174 185 182 182 182 182 182 182
 185 67 0 124 255 255 255 255 255 255 255 255
 255 255 255 255 255 255 255 255 255 255 255 255
 255 255 151 0 22 156 187 182 182 191 100 30
 125 109 116 119 111 105 92 92 116 12 67 186
 189 183 182 182 182 182 182 182 182 182 182 182
 182 182 182 182 182 182 182 182 182 182 182 182
 182 182 182 182 182 182 182 182 187 167 31 1
 102 110 107 107 107 113 51 0 114 191 182 182
 182 182 182 182 192 114 0 46 233 255 255 255
 255 255 255 255 255 255 255 255 255 255 255 255
 255 255 255 255 255 255 255 251 87 0 50 183
 185 182 185 156 17 92 110 107 107 107 107 110
 112 109 87 10 35 142 184 183 182 182 182 182
 182 182 182 182 182 182 182 182 182 182 182 182
 182 182 182 182 182 182 182 182 182 182 182 182
 185 179 41 0 62 114 107 107 107 114 81 1
 41 186 183 182 182 182 182 182 188 156 13 9
 188 255 255 255 255 255 255 255 255 255 255 255
 255 255 255 255 255 255 255 255 255 255 255 255
 255 233 40 0 72 186 184 182 183 3 74 114
 107 107 107 107 107 107 107 110 102 37 0 84
 188 183 182 182 182 182 182 182 182 182 182 182
 182 182 182 182 182 182 182 182 182 182 182 182
 182 182 182 182 185 183 61 0 51 116 108 107
 107 110 107 20 2 142 187 182 182 182 182 182
 186 172 41 0 141 255 255 255 255 255 255 255
 255 255 255 255 255 255 255 255 255 255 255 255
 255 255 255 255 255 255 251 203 15 0 93 184
 183 185 3 74 114 107 107 107 107 107 107 107
 107 109 113 81 0 122 191 182 182 182 182 182
 182 182 182 182 182 182 182 182 182 182 182 182
 182 182 182 182 182 182 182 182 183 184 84 0
 37 113 109 107 107 109 113 51 0 88 189 183
 182 182 182 182 184 183 61 0 87 251 255 255
 255 255 255 255 255 255 255 255 255 255 255 255
 255 255 255 255 255 255 255 255 255 255 255 255
 254 163 11 0 93 189 183 3 74 117 107 107
 107 107 107 107 107 107 107 107 125 0 100 194
 182 186 182 182 182 182 182 182 182 182 182 182
 182 182 182 182 182 182 182 182 182 182 182 182
 182 191 128 1 20 99 110 112 112 112 102 51
 0 41 179 184 182 182 182 182 185 188 78 0
 55 233 255 255 255 255 255 255 255 255 255 255
 255 255 255 255 255 255 255 255 255 255 255 255
 255 255 255 255 255 255 255 134 0 0 120 196
 3 67 125 120 120 112 107 107 107 107 107 107
 111 74 5 136 100 41 151 185 182 182 182 182
 182 182 182 182 182 182 182 182 182 182 182 182
 182 182 182 182 182 183 187 72 0 102 113 112
 92 73 44 4 0 50 167 188 182 182 182 182
 184 184 93 0 37 203 255 255 255 255 255 255
 255 255 255 255 255 255 255 255 255 255 255 255
 255 255 255 255 255 255 255 255 255 255 255 255
 255 134 0 10 103 26 10 30 30 30 74 113
 107 107 107 107 110 99 6 56 189 114 46 61
 189 183 182 182 182 182 182 182 182 182 182 185
 189 187 183 182 182 182 182 182 182 182 184 193
 84 0 87 113 37 1 0 17 61 120 182 186
 182 182 182 182 185 189 93 1 31 203 255 255
 255 255 255 255 255 255 255 255 255 255 255 255
 255 255 255 255 255 255 255 255 255 255 255 255
 255 255 255 255 255 255 255 134 0 0 40 105
 88 88 67 1 59 114 107 107 107 110 87 7
 156 191 136 87 109 100 189 182 182 182 182 182
 182 182 182 187 174 136 156 188 186 182 182 182
 182 182 183 179 72 31 5 31 40 0 46 134
 187 186 189 184 182 182 182 182 186 182 72 0
 34 203 255 255 255 255 255 255 255 255 255 255
 255 255 255 255 255 255 255 255 255 255 255 255
 255 255 255 255 255 255 255 255 255 255 255 255
 255 134 3 1 84 196 194 191 84 13 99 110
 107 107 110 81 45 182 189 100 40 78 78 187
 183 182 182 182 182 182 182 192 156 41 1 10
 67 156 185 189 185 182 182 192 114 29 34 1
 11 14 9 95 120 135 184 182 182 182 182 182
 188 179 67 0 31 203 255 255 255 255 255 255
 255 255 255 255 255 255 255 255 255 255 255 255
 255 255 255 255 255 255 255 255 255 255 255 255
 255 255 255 255 255 255 255 163 14 0 67 167
 194 156 2 74 117 107 107 110 81 56 183 186
 167 67 149 187 182 182 182 182 182 182 182 187
 135 22 0 59 48 6 0 35 120 174 194 183
 194 100 6 15 8 3 1 20 25 87 78 186
 182 182 182 182 191 156 35 0 46 203 255 255
 255 255 255 255 255 255 255 255 255 255 255 255
 255 255 255 255 255 255 255 255 255 255 255 255
 255 255 255 255 255 255 255 255 255 255 255 255
 255 174 31 0 31 135 193 26 20 95 113 112
 113 67 56 183 188 88 62 88 156 186 182 182
 182 182 182 186 167 17 6 87 116 116 99 73
 20 0 26 93 172 194 167 120 128 128 17 0
 87 188 141 167 179 182 183 186 189 122 17 0
 72 223 255 255 255 255 255 255 255 255 255 255
 255 255 255 255 255 255 255 255 255 255 255 255
 255 255 255 255 255 255 255 255 255 255 255 255
 255 255 255 255 255 255 254 223 87 0 0 72
 114 31 0 0 10 58 4 84 191 162 86 117
 51 120 192 182 182 182 182 183 194 100 0 67
 119 107 107 110 112 113 74 24 0 17 114 179
 194 191 190 174 162 198 157 78 5 0 72 196
 172 84 0 9 124 246 255 255 255 255 255 255
 255 255 255 255 255 255 255 255 255 255 255 255
 255 255 255 255 255 255 255 255 255 255 255 255
 255 255 255 255 255 255 255 255 255 255 255 255
 254 246 124 14 0 22 95 145 163 55 0 26
 156 199 100 108 88 61 181 183 185 188 186 183
 179 128 22 13 107 108 107 107 107 107 107 112
 116 87 24 0 41 149 188 183 179 142 45 1
 4 51 50 6 78 31 0 34 174 255 255 255
 255 255 255 255 255 255 255 255 255 255 255 255
 255 255 255 255 255 255 255 255 255 255 255 255
 255 255 255 255 255 255 255 255 255 255 255 255
 255 255 255 255 255 255 255 255 203 72 0 0
 40 157 193 172 172 190 136 61 120 41 179 185
 183 174 93 78 31 0 0 9 81 111 107 107
 107 107 107 107 107 107 111 113 74 8 0 50
 35 0 0 6 58 106 125 115 2 0 3 95
 223 255 255 255 255 255 255 255 255 255 255 255
 255 255 255 255 255 255 255 255 255 255 255 255
 255 255 255 255 255 255 255 255 255 255 255 255
 255 255 255 255 255 255 255 255 255 255 255 255
 255 254 246 151 37 0 0 72 149 187 194 61
 109 55 167 188 183 194 105 0 24 67 73 81
 99 110 107 107 107 107 107 107 107 107 107 107
 107 112 99 73 62 67 73 81 92 186 108 68
 12 0 55 174 255 255 255 255 255 255 255 255
 255 255 255 255 255 255 255 255 255 255 255 255
 255 255 255 255 255 255 255 255 255 255 255 255
 255 255 255 255 255 255 255 255 255 255 255 255
 255 255 255 255 255 255 255 255 255 233 134 31
 0 0 56 135 50 56 156 194 191 193 135 17
 10 106 113 111 112 110 107 107 107 107 107 107
 107 107 107 107 107 107 107 110 112 112 112 119
 120 92 43 0 0 46 157 246 255 255 255 255
 255 255 255 255 255 255 255 255 255 255 255 255
 255 255 255 255 255 255 255 255 255 255 255 255
 255 255 255 255 255 255 255 255 255 255 255 255
 255 255 255 255 255 255 255 255 255 255 255 255
 255 255 255 255 223 120 40 0 0 8 93 156
 128 100 50 9 0 81 114 107 107 107 107 107
 107 107 107 107 107 107 107 107 107 107 107 110
 113 112 113 108 67 24 0 0 50 134 233 255
 255 255 255 255 255 255 255 255 255 255 255 255
 255 255 255 255 255 255 255 255 255 255 255 255
 255 255 255 255 255 255 255 255 255 255 255 255
 255 255 255 255 255 255 255 255 255 255 255 255
 255 255 255 255 255 255 255 255 255 255 255 233
 145 78 14 0 0 0 0 0 18 91 125 112
 109 108 107 107 107 107 107 107 107 107 107 108
 109 110 116 113 96 82 73 20 0 0 22 87
 163 246 255 255 255 255 255 255 255 255 255 255
 255 255 255 255 255 255 255 255 255 255 255 255
 255 255 255 255 255 255 255 255 255 255 255 255
 255 255 255 255 255 255 255 255 255 255 255 255
 255 255 255 255 255 255 255 255 255 255 255 255
 255 255 255 255 255 255 251 203 134 72 20 0
 0 2 24 41 74 95 108 113 112 109 109 109
 109 109 109 113 108 102 74 48 24 10 1 0
 25 78 145 223 255 255 255 255 255 255 255 255
 255 255 255 255 255 255 255 255 255 255 255 255
 255 255 255 255 255 255 255 255 255 255 255 255
 255 255 255 255 255 255 255 255 255 255 255 255
 255 255 255 255 255 255 255 255 255 255 255 255
 255 255 255 255 255 255 255 255 255 255 255 255
 255 255 254 233 163 103 61 31 6 0 0 0
 0 0 0 0 0 0 0 1 0 0 0 0
 6 31 61 109 174 240 255 255 255 255 255 255
 255 255 255 255 255 255 255 255 255 255 255 255
 255 255 255 255 255 255 255 255 255 255 255 255
 255 255 255 255 255 255 255 255 255 255 255 255
 255 255 255 255 255 255 255 255 255 255 255 255
 255 255 255 255 255 255 255 255 255 255 255 255
 255 255 255 255 255 255 255 255 255 255 255 251
 233 203 163 124 109 95 72 72 72 72 72 72
 72 103 109 134 163 203 233 251 255 254 254 255
 255 255 255 255 255 255 255 255 255 255 255 255
 255 255 255 255 255 255 255 255 255 255 255 255
 255 255 255 255 255 255 255 255 255 255 255 255
 255 255 255 255 255 255 255 255 255 255 255 255
 255 255 255 255 255 255 255 255 255 255 255 255
 255 255 255 255 255 255 255 255 255 255 255 255
 255 255 255 255 255 255 255 255 254 255 255 255
 255 255 255 255 255 255 255 255 255 255 255 255
 255 255 255 255 255 255 255 255 255 255 255 255
 255 255 255 255 255 255 255 255 255 255 255 255
 255 255 255 255 255 255 255 255 255 255 255 255
 255 255 255 255 255 255 255 255 255 255 255 255
 255 255 255 255 255 255 255 255 255 255 255 255
 255 255 255 255 255 255 255 255 255 255 255 255
 255 255 255 255 255 255 255 255 255 255 255 255
 255 255 255 255 255 255 255 255 255 255 255 255
 255 255 255 255 255 255 255 255 255 255 255 255
 255 255 255 255 255 255 255 255 255 255 255 255
 255 255 255 255 255 255 255 255 255 255 255 255
 255 255 255 255 255 255 255 255 255 255 255 255
 255 255 255 255 255 255 255 255 255 255 255 255
 255 255 255 255 255 255 255 255 255 255 255 255
 255 255 255 255 255 255 255 255 255 255 255 255
 255 255 255 255 255 255 255 255 255 255 255 255
 255 255 255 255 255 255 255 255 255 255 255 255
 255 255 255 255 255 255 255 255 255 255 255 255
 255 255 255 255 255 255 255 255 255 255 255 255
 255 255 255 255 255 255 255 255 255 255 255 255
 255 255 255 255 255 255 255 255 255 255 255 255
 255 255 255 255 255 255 255 255 255 255 255 255
 255 255 255 255 255 255 255 255 255 255 255 255
 255 255 255 255 255 255 255 255 255 255 255 255
 255 255 255 255 255 255 255 255 255 255 255 255
 255 255 255 255 255 255 255 255 255 255 255 255
 255 255 255 255 255 255 255 255 255 255 255 255
 255 255 255 255 255 255 255 255 255 255 255 255
 255 255 255 255 255 255 255 255
